<?xml version="1.0" encoding="UTF-8" standalone="no"?>
<svg
   xmlns:dc="http://purl.org/dc/elements/1.1/"
   xmlns:cc="http://creativecommons.org/ns#"
   xmlns:rdf="http://www.w3.org/1999/02/22-rdf-syntax-ns#"
   xmlns:svg="http://www.w3.org/2000/svg"
   xmlns="http://www.w3.org/2000/svg"
   xmlns:sodipodi="http://sodipodi.sourceforge.net/DTD/sodipodi-0.dtd"
   xmlns:inkscape="http://www.inkscape.org/namespaces/inkscape"
   width="208.64285mm"
   height="73.327377mm"
   viewBox="0 0 208.64285 73.327377"
   version="1.1"
   id="svg8"
   inkscape:version="1.0.1 (3bc2e813f5, 2020-09-07)"
   sodipodi:docname="Hide.svg"
   inkscape:export-filename="C:\Users\zigan\source\repos\nicolasperivolaris\Stratego\Hide.png"
   inkscape:export-xdpi="96"
   inkscape:export-ydpi="96">
  <defs
     id="defs2" />
  <sodipodi:namedview
     id="base"
     pagecolor="#ffffff"
     bordercolor="#666666"
     borderopacity="1.0"
     inkscape:pageopacity="0.0"
     inkscape:pageshadow="2"
     inkscape:zoom="1.4"
     inkscape:cx="224.91646"
     inkscape:cy="85.567101"
     inkscape:document-units="mm"
     inkscape:current-layer="layer1"
     inkscape:document-rotation="0"
     showgrid="false"
     inkscape:window-width="1816"
     inkscape:window-height="1033"
     inkscape:window-x="86"
     inkscape:window-y="0"
     inkscape:window-maximized="0" />
  <metadata
     id="metadata5">
    <rdf:RDF>
      <cc:Work
         rdf:about="">
        <dc:format>image/svg+xml</dc:format>
        <dc:type
           rdf:resource="http://purl.org/dc/dcmitype/StillImage" />
        <dc:title />
      </cc:Work>
    </rdf:RDF>
  </metadata>
  <g
     inkscape:label="Calque 1"
     inkscape:groupmode="layer"
     id="layer1"
     transform="translate(-0.75595242,-83.910713)">
    <rect
       style="fill:none;stroke-width:0.264583"
       id="rect10"
       width="208.64285"
       height="73.327377"
       x="0.75595242"
       y="83.910713" />
    <path
       style="fill:none;stroke:#000000;stroke-width:0.264583px;stroke-linecap:butt;stroke-linejoin:miter;stroke-opacity:1"
       d="M 18.898808,83.910713 H 0.75595242"
       id="path12" />
    <path
       style="fill:none;stroke:#000000;stroke-width:0.264583px;stroke-linecap:butt;stroke-linejoin:miter;stroke-opacity:1"
       d="M 0.75595242,83.910713 209.3988,157.2381"
       id="path14" />
    <path
       style="fill:none;stroke:#000000;stroke-width:0.264583px;stroke-linecap:butt;stroke-linejoin:miter;stroke-opacity:1"
       d="M 227.54166,157.2381 H 209.3988"
       id="path12-8" />
    <path
       style="fill:none;stroke:#000000;stroke-width:0.264583px;stroke-linecap:butt;stroke-linejoin:miter;stroke-opacity:1"
       d="M 18.898812,83.910711 227.54166,157.2381"
       id="path14-0" />
    <path
       style="fill:#000000;stroke-width:0.714286"
       d="M 397.79325,138.90337 6.3843285,1.2813862 37.397319,1.0951223 68.410309,0.90885853 459.87767,138.4845 c 215.30705,75.6666 391.60129,137.70578 391.765,137.86484 0.16365,0.15905 -13.8185,0.26373 -31.07142,0.2326 l -31.36908,-0.0566 z"
       id="path52"
       transform="matrix(0.26458333,0,0,0.26458333,0.75595242,83.910713)" />
    <path
       style="fill:#000000;stroke-width:0.714286"
       d="M 398.70957,138.87993 9.6455314,1.9956719 38.709567,1.6165431 67.773602,1.2374143 249.55932,65.065564 c 312.87773,109.856856 593.006,208.395636 597.14285,210.052796 1.23222,0.49361 -7.62385,0.70456 -28.57142,0.68058 L 787.7736,275.76415 398.70957,138.87989 Z"
       id="path54"
       transform="matrix(0.26458333,0,0,0.26458333,0.75595242,83.910713)" />
    <path
       style="fill:#000000;stroke-width:0.714286"
       d="M 398.71012,138.88589 9.6466309,1.9956719 38.710116,1.6118019 67.773602,1.2279319 197.7736,46.845556 c 258.7928,90.811634 644.69686,226.556984 648.92857,228.266674 1.24208,0.50182 -7.45607,0.71269 -28.57142,0.69266 l -30.35715,-0.0288 z"
       id="path56"
       transform="matrix(0.26458333,0,0,0.26458333,0.75595242,83.910713)" />
    <g
       id="g102"
       transform="matrix(-1,0,0,1,222.51138,14.024066)">
      <rect
         style="fill:none;stroke-width:0.264583"
         id="rect10-7"
         width="208.64285"
         height="73.327377"
         x="-5.0302877"
         y="69.88665" />
      <path
         style="fill:none;stroke:#000000;stroke-width:0.264583px;stroke-linecap:butt;stroke-linejoin:miter;stroke-opacity:1"
         d="M 13.112568,69.886649 H -5.0302877"
         id="path12-2" />
      <path
         style="fill:none;stroke:#000000;stroke-width:0.264583px;stroke-linecap:butt;stroke-linejoin:miter;stroke-opacity:1"
         d="M -5.0302877,69.886649 203.61256,143.21403"
         id="path14-7" />
      <path
         style="fill:none;stroke:#000000;stroke-width:0.264583px;stroke-linecap:butt;stroke-linejoin:miter;stroke-opacity:1"
         d="M 221.75543,143.21403 H 203.61256"
         id="path12-8-0" />
      <path
         style="fill:none;stroke:#000000;stroke-width:0.264583px;stroke-linecap:butt;stroke-linejoin:miter;stroke-opacity:1"
         d="M 13.112572,69.886647 221.75543,143.21403"
         id="path14-0-5" />
      <path
         style="fill:#000000;stroke-width:0.188988"
         d="M 100.21918,106.63816 -3.3411008,70.225681 l 8.20552,-0.04928 8.2055208,-0.04928 103.57574,36.400209 c 56.96666,20.02012 103.61118,36.43466 103.65449,36.47674 0.0433,0.0421 -3.65614,0.0698 -8.22098,0.0615 l -8.29973,-0.015 z"
         id="path52-1" />
      <path
         style="fill:#000000;stroke-width:0.188988"
         d="M 100.46162,106.63196 -2.4782409,70.414669 5.2116182,70.314358 12.901478,70.214047 60.998948,87.101915 C 143.78118,116.1682 217.89846,142.23992 218.993,142.67837 c 0.32602,0.13061 -2.01715,0.18642 -7.55952,0.18007 l -8.032,-0.009 -102.93986,-36.2173 z"
         id="path54-6" />
      <path
         style="fill:#000000;stroke-width:0.188988"
         d="M 100.46177,106.63353 -2.47795,70.414669 5.2117642,70.313104 12.901478,70.211538 47.297309,82.281201 C 115.76958,106.30844 217.87336,142.2244 218.993,142.67675 c 0.32863,0.13278 -1.97275,0.18857 -7.55952,0.18327 l -8.032,-0.008 z"
         id="path56-0" />
    </g>
  </g>
</svg>
